<svg width="32" height="33" viewBox="0 0 32 33" fill="none" xmlns="http://www.w3.org/2000/svg">
<path fill-rule="evenodd" clip-rule="evenodd" d="M17.4497 5.88139C17.4497 5.16342 16.8677 4.58139 16.1497 4.58139C15.4318 4.58139 14.8497 5.16342 14.8497 5.88139V14.7311H6C5.28203 14.7311 4.7 15.3132 4.7 16.0311C4.7 16.7491 5.28203 17.3311 6 17.3311H14.8497V26.1809C14.8497 26.8989 15.4318 27.4809 16.1497 27.4809C16.8677 27.4809 17.4497 26.8989 17.4497 26.1809V17.3311H26.2995C27.0175 17.3311 27.5995 16.7491 27.5995 16.0311C27.5995 15.3132 27.0175 14.7311 26.2995 14.7311H17.4497V5.88139Z" fill="#14182C"/>
</svg>
