<svg width="32" height="32" viewBox="0 0 32 32" fill="none" xmlns="http://www.w3.org/2000/svg">
<path d="M20.874 8.99222H25.4918L20.874 4.06445V8.99222Z" stroke="white" stroke-opacity="0.5" stroke-width="0.5"/>
<path d="M25.492 8.9924L20.874 4.06445V8.9924H25.492Z" stroke="white" stroke-opacity="0.5" stroke-linejoin="round"/>
<path d="M20.2064 10.2835C20.3468 10.3413 20.4972 10.3707 20.6491 10.37H25.75V27.6229C25.7494 27.7673 25.6918 27.9057 25.5896 28.0078C25.4875 28.11 25.3491 28.1676 25.2047 28.1682H6.7953C6.65086 28.1676 6.51251 28.11 6.41038 28.0078C6.30824 27.9057 6.2506 27.7673 6.25 27.6229V4.5453C6.2506 4.40086 6.30824 4.26251 6.41038 4.16038C6.51251 4.05824 6.65086 4.0006 6.7953 4H19.4944V9.21538C19.4938 9.3672 19.5232 9.51763 19.581 9.65802C19.6388 9.7984 19.7238 9.92594 19.8312 10.0333C19.9385 10.1406 20.066 10.2257 20.2064 10.2835Z" stroke="white" stroke-opacity="0.5" stroke-linejoin="round"/>
<rect x="4" y="19" width="24" height="6.75" rx="1" fill="white" fill-opacity="0.5"/>
<path d="M7 25L8.7124 22.3853L7.16064 19.9893H8.34326L9.34814 21.5991L10.3325 19.9893H11.5049L9.94629 22.4229L11.6587 25H10.4385L9.32764 23.2671L8.21338 25H7ZM12.2056 25V20.0303H13.2173V24.1558H15.7329V25H12.2056ZM16.2012 23.3696L17.1855 23.2739C17.2448 23.6043 17.3644 23.847 17.5444 24.002C17.7267 24.1569 17.9717 24.2344 18.2793 24.2344C18.6051 24.2344 18.8501 24.166 19.0142 24.0293C19.1805 23.8903 19.2637 23.7285 19.2637 23.5439C19.2637 23.4255 19.2284 23.3252 19.1577 23.2432C19.0894 23.1589 18.9686 23.0859 18.7954 23.0244C18.6769 22.9834 18.4069 22.9105 17.9854 22.8057C17.443 22.6712 17.0625 22.506 16.8438 22.3101C16.5361 22.0343 16.3823 21.6982 16.3823 21.3018C16.3823 21.0465 16.4541 20.8084 16.5977 20.5874C16.7435 20.3641 16.952 20.1943 17.2231 20.0781C17.4966 19.9619 17.8258 19.9038 18.2109 19.9038C18.8398 19.9038 19.3127 20.0417 19.6294 20.3174C19.9484 20.5931 20.1159 20.9611 20.1318 21.4214L19.1201 21.4658C19.0768 21.2083 18.9834 21.0238 18.8398 20.9121C18.6986 20.7982 18.4855 20.7412 18.2007 20.7412C17.9067 20.7412 17.6766 20.8016 17.5103 20.9224C17.4032 20.9998 17.3496 21.1035 17.3496 21.2334C17.3496 21.3519 17.3997 21.4533 17.5 21.5376C17.6276 21.6447 17.9375 21.7563 18.4297 21.8726C18.9219 21.9888 19.2853 22.1095 19.52 22.2349C19.757 22.3579 19.9416 22.5277 20.0737 22.7441C20.2082 22.9583 20.2754 23.2238 20.2754 23.5405C20.2754 23.8276 20.1956 24.0965 20.0361 24.3472C19.8766 24.5978 19.651 24.7847 19.3594 24.9077C19.0677 25.0285 18.7043 25.0889 18.269 25.0889C17.6356 25.0889 17.1491 24.943 16.8096 24.6514C16.4701 24.3574 16.2673 23.9302 16.2012 23.3696ZM20.6172 25L22.3296 22.3853L20.7778 19.9893H21.9604L22.9653 21.5991L23.9497 19.9893H25.1221L23.5635 22.4229L25.2759 25H24.0557L22.9448 23.2671L21.8306 25H20.6172Z" fill="#242C4F" fill-opacity="0.5"/>
</svg>
