<svg width="32" height="32" viewBox="0 0 32 32" fill="none" xmlns="http://www.w3.org/2000/svg">
<path d="M20.874 8.99222H25.4918L20.874 4.06445V8.99222Z" fill="white"/>
<path d="M25.492 8.9924L20.874 4.06445V8.9924H25.492ZM25.492 8.9924H20.874V4.06445L25.492 8.9924Z" fill="white" stroke="#707070" stroke-linejoin="round"/>
<path d="M20.2064 10.2835C20.3468 10.3413 20.4972 10.3707 20.6491 10.37H25.75V27.6229C25.7494 27.7673 25.6918 27.9057 25.5896 28.0078C25.4875 28.11 25.3491 28.1676 25.2047 28.1682H6.7953C6.65086 28.1676 6.51251 28.11 6.41038 28.0078C6.30824 27.9057 6.2506 27.7673 6.25 27.6229V4.5453C6.2506 4.40086 6.30824 4.26251 6.41038 4.16038C6.51251 4.05824 6.65086 4.0006 6.7953 4H19.4944V9.21538C19.4938 9.3672 19.5232 9.51763 19.581 9.65802C19.6388 9.7984 19.7238 9.92594 19.8312 10.0333C19.9385 10.1406 20.066 10.2257 20.2064 10.2835Z" stroke="#707070" stroke-linejoin="round"/>
<rect x="4" y="19" width="24" height="6.75" rx="1" fill="#14182C"/>
<path d="M9.50928 25V19.9893H11.1328C11.748 19.9893 12.1491 20.0143 12.3359 20.0645C12.623 20.1396 12.8634 20.3037 13.0571 20.5566C13.2508 20.8073 13.3477 21.132 13.3477 21.5308C13.3477 21.8384 13.2918 22.097 13.1802 22.3066C13.0685 22.5163 12.9261 22.6815 12.7529 22.8022C12.582 22.9207 12.4077 22.9993 12.23 23.0381C11.9884 23.0859 11.6387 23.1099 11.1807 23.1099H10.521V25H9.50928ZM10.521 20.8369V22.2588H11.0747C11.4735 22.2588 11.7401 22.2326 11.8745 22.1802C12.009 22.1278 12.1138 22.0457 12.189 21.9341C12.2664 21.8224 12.3052 21.6925 12.3052 21.5444C12.3052 21.3621 12.2516 21.2118 12.1445 21.0933C12.0374 20.9748 11.9019 20.9007 11.7378 20.8711C11.617 20.8483 11.3743 20.8369 11.0098 20.8369H10.521ZM14.1748 19.9893H16.0239C16.4409 19.9893 16.7588 20.0212 16.9775 20.085C17.2715 20.1715 17.5233 20.3254 17.7329 20.5464C17.9425 20.7674 18.1021 21.0386 18.2114 21.3599C18.3208 21.6789 18.3755 22.0731 18.3755 22.5425C18.3755 22.9549 18.3242 23.3104 18.2217 23.6089C18.0964 23.9735 17.9175 24.2686 17.6851 24.4941C17.5096 24.665 17.2726 24.7983 16.9741 24.894C16.7508 24.9647 16.4523 25 16.0786 25H14.1748V19.9893ZM15.1865 20.8369V24.1558H15.9419C16.2244 24.1558 16.4284 24.1398 16.5537 24.1079C16.7178 24.0669 16.8534 23.9974 16.9604 23.8994C17.0698 23.8014 17.1587 23.6408 17.2271 23.4175C17.2954 23.1919 17.3296 22.8854 17.3296 22.498C17.3296 22.1107 17.2954 21.8133 17.2271 21.606C17.1587 21.3986 17.063 21.2368 16.9399 21.1206C16.8169 21.0044 16.6608 20.9258 16.4717 20.8848C16.3304 20.8529 16.0535 20.8369 15.6411 20.8369H15.1865ZM19.2437 25V19.9893H22.6787V20.8369H20.2554V22.0229H22.3472V22.8706H20.2554V25H19.2437Z" fill="white"/>
</svg>
