<svg width="33" height="33" viewBox="0 0 33 33" fill="none" xmlns="http://www.w3.org/2000/svg">
<path d="M25.5473 16.8021C25.3051 17.0434 25.0091 17.166 24.6678 17.166C24.3263 17.166 24.03 17.0429 23.7871 16.8009C23.5442 16.5589 23.4204 16.2638 23.4204 15.9234C23.4204 15.5829 23.5441 15.2868 23.7865 15.0426C24.0293 14.798 24.3257 14.6733 24.6678 14.6733C25.0114 14.6733 25.3083 14.7978 25.5498 15.043C25.7904 15.2873 25.9131 15.5833 25.9131 15.9234C25.9131 16.2651 25.7899 16.5608 25.5473 16.8021ZM25.5473 16.8021C25.5473 16.8021 25.5472 16.8022 25.5472 16.8022L25.4414 16.6958L25.5473 16.8021ZM9.65204 11.4839H8.46104C7.434 11.4839 6.56199 11.8398 5.8546 12.5508C5.14717 13.2618 4.79336 14.1391 4.79336 15.1729V20.4029C4.79336 21.076 5.03103 21.6536 5.50361 22.1272L5.50363 22.1273C5.97624 22.6007 6.55285 22.8389 7.22484 22.8389H9.65204V25.6841C9.65204 26.3528 9.88994 26.9284 10.3622 27.4023C10.8348 27.8766 11.4113 28.1153 12.0832 28.1153H22.2987C22.9719 28.1153 23.5495 27.8767 24.0229 27.4025C24.4962 26.9285 24.7347 26.353 24.7347 25.6841V22.8389H27.1571C27.8302 22.8389 28.4078 22.6008 28.8815 22.1274L28.8815 22.1274C29.3551 21.6537 29.5934 21.0761 29.5934 20.4029V15.1729C29.5934 14.1393 29.2413 13.2621 28.5372 12.551C27.8326 11.8395 26.9571 11.4839 25.9209 11.4839H24.7347V8.05778C24.7347 7.38467 24.4964 6.807 24.0228 6.33338C23.5494 5.85974 22.9718 5.62148 22.2987 5.62148H12.0832C11.4114 5.62148 10.8349 5.85982 10.3623 6.33348C9.88971 6.80712 9.65204 7.38477 9.65204 8.05778V11.4839ZM22.1487 8.20778V11.4839H12.2332V8.20778H22.1487ZM10.0062 20.0627L10.005 20.0721V20.0816V20.2529H7.37484V15.1729C7.37484 14.8576 7.4796 14.599 7.68873 14.3873L7.68882 14.3872C7.89768 14.1753 8.15184 14.0699 8.46104 14.0699H25.9184C26.2322 14.0699 26.4879 14.1731 26.6957 14.3784C26.9026 14.5826 27.0071 14.8375 27.0071 15.1543V20.2529H24.3769V20.0816V20.0721L24.3757 20.0627C24.3133 19.5709 24.0812 19.1516 23.688 18.8088C23.2927 18.4643 22.8274 18.2913 22.2987 18.2913H12.0832C11.5545 18.2913 11.0892 18.4643 10.6939 18.8088C10.3007 19.1516 10.0686 19.5709 10.0062 20.0627ZM12.2332 20.8776H22.1487V25.5751H12.2332V20.8776Z" fill="#14182C" stroke="#14182C" stroke-width="0.3"/>
<rect x="11.5" y="7" width="11" height="5" fill="#14182C"/>
<rect x="9.5" y="10.35" width="16" height="1" fill="white"/>
<rect x="6.5" y="14" width="21" height="7" fill="#14182C"/>
<circle cx="25" cy="15.5" r="1.5" fill="white"/>
</svg>
