<svg width="33" height="33" viewBox="0 0 33 33" fill="none" xmlns="http://www.w3.org/2000/svg">
<path d="M12.0832 28.1462C11.451 28.1462 10.9128 27.9233 10.4685 27.4774C10.0242 27.0315 9.80204 26.494 9.80204 25.865V22.8698H7.22484C6.59243 22.8698 6.05408 22.6473 5.60979 22.2022C5.1655 21.7569 4.94336 21.2174 4.94336 20.5838V15.3538C4.94336 14.3581 5.28255 13.5193 5.96093 12.8375C6.63931 12.1557 7.47268 11.8148 8.46104 11.8148H25.9209C26.9189 11.8148 27.7554 12.1557 28.4306 12.8375C29.1058 13.5193 29.4434 14.3581 29.4434 15.3538V20.5838C29.4434 21.2174 29.2207 21.7569 28.7754 22.2022C28.3301 22.6473 27.7907 22.8698 27.1571 22.8698H24.5847V25.865C24.5847 26.494 24.362 27.0315 23.9167 27.4774C23.4716 27.9233 22.9323 28.1462 22.2987 28.1462H12.0832ZM7.22484 20.5838H10.155V20.2625C10.2124 19.8098 10.4249 19.4232 10.7925 19.1028C11.1601 18.7824 11.5903 18.6222 12.0832 18.6222H22.2987C22.7916 18.6222 23.2218 18.7824 23.5894 19.1028C23.957 19.4232 24.1695 19.8098 24.2269 20.2625V20.5838H27.1571V15.3352C27.1571 14.981 27.0384 14.6868 26.8011 14.4525C26.5636 14.218 26.2694 14.1008 25.9184 14.1008H8.46104C8.11292 14.1008 7.8199 14.2214 7.582 14.4628C7.34389 14.7039 7.22484 15.0009 7.22484 15.3538V20.5838ZM22.2987 11.8148V8.23867H12.0832V11.8148H9.80204V8.23867C9.80204 7.60506 10.0242 7.06561 10.4685 6.62032C10.9128 6.17502 11.451 5.95238 12.0832 5.95238H22.2987C22.9323 5.95238 23.4716 6.17502 23.9167 6.62032C24.362 7.06561 24.5847 7.60506 24.5847 8.23867V11.8148H22.2987ZM24.6678 17.1968C24.9693 17.1968 25.2272 17.0901 25.4414 16.8767C25.6559 16.6635 25.7631 16.406 25.7631 16.1043C25.7631 15.8042 25.6564 15.5458 25.4429 15.3291C25.2295 15.1125 24.9711 15.0042 24.6678 15.0042C24.3662 15.0042 24.108 15.1125 23.8929 15.3291C23.6779 15.5458 23.5704 15.8042 23.5704 16.1043C23.5704 16.4042 23.6779 16.6613 23.8929 16.8755C24.108 17.0897 24.3662 17.1968 24.6678 17.1968ZM22.2987 25.906V20.9085H12.0832V25.906H22.2987Z" fill="white" fill-opacity="0.5"/>
<path d="M11.5 7.18089H22.5V12.1809H11.5V7.18089Z" fill="#DAE6EC"/>
<path d="M6.5 14.1809H27.5V21.1809H6.5V14.1809Z" fill="#DAE6EC"/>
<rect x="9.5" y="10.5309" width="16" height="1" fill="#14182C"/>
<circle cx="25" cy="15.6809" r="1.5" fill="#14182C"/>
</svg>
