<svg width="32" height="33" viewBox="0 0 32 33" fill="none" xmlns="http://www.w3.org/2000/svg">
<path d="M10.2773 28.1587H3.97705V21.823L3.95605 21.8009L17.5229 8.15634L23.8872 14.5573L10.3203 28.2019L10.2773 28.1587ZM18.0771 7.57888L20.9062 4.73403C21.092 4.54717 21.3125 4.39886 21.5552 4.29774C21.7979 4.19661 22.0581 4.14453 22.3208 4.14453C22.5835 4.14453 22.8437 4.19661 23.0864 4.29774C23.3291 4.39886 23.5496 4.54717 23.7354 4.73403L27.271 8.2899C27.6456 8.66704 27.8564 9.17839 27.8564 9.71147C27.8564 10.2445 27.6456 10.7559 27.271 11.133L24.4424 13.9779L18.0771 7.57888Z" fill="#242C4F" fill-opacity="0.65"/>
<path d="M17.4727 12.571L10.4727 19.6106" stroke="white" stroke-linecap="round"/>
<path d="M9.10784 27.6556H4.47266V22.9942L9.10784 27.6556Z" fill="white"/>
<path d="M4.97266 24.2081V27.1528H7.90072L4.97266 24.2081ZM3.97266 21.7803L10.3149 28.1584H3.97266V21.7803Z" fill="#242C4F" fill-opacity="0.65"/>
</svg>
