<svg width="32" height="33" viewBox="0 0 32 33" fill="none" xmlns="http://www.w3.org/2000/svg">
<path d="M16.0283 24.1354C20.4466 24.1354 24.0283 20.5334 24.0283 16.0901C24.0283 11.6469 20.4466 8.04492 16.0283 8.04492C11.61 8.04492 8.02832 11.6469 8.02832 16.0901C8.02832 20.5334 11.61 24.1354 16.0283 24.1354Z" fill="#242C4F" stroke="#66E5FD" stroke-width="0.1"/>
<path d="M12.0283 8.04568V4.54395H20.0283V8.04568" stroke="#242C4F" stroke-linecap="round" stroke-linejoin="round"/>
<path d="M8.02832 7.54199H24.0283V26.1466C24.0283 26.68 23.8176 27.1916 23.4425 27.5688C23.0675 27.946 22.5588 28.1579 22.0283 28.1579H10.0283C9.49789 28.1579 8.98918 27.946 8.61411 27.5688C8.23903 27.1916 8.02832 26.68 8.02832 26.1466V7.54199Z" fill="#242C4F"/>
<path d="M12.0283 14.588V21.9202" stroke="white" stroke-linecap="round"/>
<path d="M16.0283 14.588V21.9202" stroke="white" stroke-linecap="round"/>
<path d="M6.16406 8.0451H25.7041" stroke="#242C4F" stroke-linecap="round" stroke-linejoin="round"/>
<path d="M20.0283 14.588V21.9202" stroke="white" stroke-linecap="round"/>
</svg>
