<svg width="33" height="33" viewBox="0 0 33 33" fill="none" xmlns="http://www.w3.org/2000/svg">
<path d="M16.7456 24.3172H16.7217C14.8986 24.3132 13.1016 23.8827 11.4746 23.0601C10.0855 22.3504 8.81939 21.4223 7.72461 20.3111C6.53978 19.1296 5.5296 17.7851 4.72461 16.3182C5.52523 14.8487 6.5327 13.5016 7.71582 12.3182C8.80754 11.2056 10.072 10.2766 11.46 9.5672C13.0868 8.745 14.8842 8.31681 16.707 8.3172H16.7236C18.5493 8.31957 20.3493 8.74926 21.979 9.57208C23.3685 10.2816 24.6347 11.2101 25.729 12.3221C26.918 13.5026 27.9286 14.8501 28.729 16.3221C27.9249 17.7917 26.9146 19.1386 25.729 20.3221C24.6371 21.4338 23.3731 22.3624 21.9858 23.0721C20.3611 23.8927 18.5658 24.3193 16.7456 24.3172ZM16.7217 12.3172C15.6608 12.3172 14.6437 12.7387 13.8936 13.4888C13.1434 14.239 12.7217 15.2563 12.7217 16.3172C12.7217 17.3781 13.1434 18.3954 13.8936 19.1456C14.6437 19.8957 15.6608 20.3172 16.7217 20.3172C17.7825 20.3172 18.8001 19.8957 19.5503 19.1456C20.3004 18.3954 20.7217 17.3781 20.7217 16.3172C20.7204 15.2564 20.2981 14.2395 19.5479 13.4896C18.7976 12.7396 17.7805 12.318 16.7197 12.3172H16.7217Z" fill="#14182C"/>
</svg>
