<svg width="33" height="33" viewBox="0 0 33 33" fill="none" xmlns="http://www.w3.org/2000/svg">
<path d="M11.0273 28.3179H4.72705V22.0178L4.70605 21.9958L18.2729 8.42798L24.6372 14.793L11.0703 28.3608L11.0273 28.3179ZM18.8271 7.85376L21.6562 5.0249C21.842 4.8391 22.0625 4.69162 22.3052 4.59106C22.5479 4.4905 22.8081 4.43872 23.0708 4.43872C23.3335 4.43872 23.5937 4.4905 23.8364 4.59106C24.0791 4.69162 24.2996 4.8391 24.4854 5.0249L28.021 8.56079C28.3956 8.93581 28.6064 9.44428 28.6064 9.97437C28.6064 10.5044 28.3956 11.0129 28.021 11.3879L25.1924 14.2168L18.8271 7.85376Z" fill="#242C4F"/>
<path d="M18.2227 12.8179L11.2227 19.8179" stroke="white" stroke-linecap="round"/>
<path d="M9.85784 27.8176H5.22266V23.1824L9.85784 27.8176Z" fill="white"/>
<path d="M5.72266 24.3896V27.3176H8.65072L5.72266 24.3896ZM4.72266 21.9753L11.0649 28.3176H4.72266V21.9753Z" fill="#242C4F"/>
</svg>
