<svg width="80" height="80" viewBox="0 0 80 80" fill="none" xmlns="http://www.w3.org/2000/svg">
<path d="M28.0918 34.1091H22.3252C21.5014 34.1091 20.9521 33.56 20.9521 32.7363V26.9704C20.9521 26.1467 21.5014 25.5975 22.3252 25.5975H28.0918C28.9156 25.5975 29.4648 26.1467 29.4648 26.9704V32.7363C29.4648 33.4227 28.9156 34.1091 28.0918 34.1091Z" fill="white"/>
<path d="M49.5107 45.6411H22.3252C21.5014 45.6411 20.9521 45.092 20.9521 44.2683V38.5024C20.9521 37.6787 21.5014 37.1295 22.3252 37.1295H49.5107C50.3345 37.1295 50.8837 37.6787 50.8837 38.5024V44.2683C50.8837 44.9547 50.1972 45.6411 49.5107 45.6411Z" fill="white"/>
<path d="M49.5107 57.3094H22.3252C21.5014 57.3094 20.9521 56.7603 20.9521 55.9366V50.0334C20.9521 49.2097 21.5014 48.6605 22.3252 48.6605H49.5107C50.3345 48.6605 50.8837 49.2097 50.8837 50.0334V55.7993C50.8837 56.623 50.1972 57.3094 49.5107 57.3094Z" fill="white"/>
<path d="M57.7498 27.245L48.5506 17.3606H20.1293C16.9714 17.3606 14.5 19.8317 14.5 22.9892V63.7625C14.5 66.92 16.9714 69.3911 20.1293 69.3911H52.2578C55.4157 69.3911 57.8871 66.92 57.8871 63.7625L57.7498 27.245ZM53.7681 26.8332H49.5117V22.0282L53.7681 26.8332ZM55.553 63.7625C55.553 65.5472 54.0427 67.0573 52.2578 67.0573H20.1293C18.3444 67.0573 16.8341 65.5472 16.8341 63.7625V22.9892C16.8341 21.2045 18.3444 19.6944 20.1293 19.6944H46.903V28.0687C46.903 28.7551 47.4522 29.4416 48.1387 29.4416C48.1387 29.4416 52.3951 29.4416 55.553 29.4416V63.7625Z" fill="white"/>
<path d="M65.7137 19.2836L56.5145 9.39917H28.0932C24.9353 9.39917 22.4639 11.8703 22.4639 15.0278V16.1261H24.798V14.8905C24.798 13.1058 26.171 11.5957 28.0932 11.5957H54.8669V20.1073C54.8669 20.7937 55.4161 21.4801 56.1026 21.4801C56.6518 21.4801 60.2216 21.4801 63.3795 21.4801V55.8011C63.3795 57.5858 61.8692 59.0959 60.0843 59.0959H59.2605V61.4297H60.0843C63.2422 61.567 65.851 59.0959 65.851 55.9384C65.851 55.8011 65.851 55.8011 65.851 55.6638L65.7137 19.2836ZM57.4756 18.7345V14.0668L61.7319 18.8717C59.947 18.7345 58.1621 18.7345 57.4756 18.7345Z" fill="white"/>
</svg>
