<svg width="7" height="5" viewBox="0 0 7 5" fill="none" xmlns="http://www.w3.org/2000/svg">
<path id="Icon awesome-sort-down" d="M1.4886 0.73293H6.41794C6.51725 0.731102 6.61479 0.759574 6.69786 0.814634C6.78094 0.869693 6.84569 0.948787 6.88367 1.04161C6.92166 1.13443 6.93112 1.23667 6.91083 1.33501C6.89053 1.43335 6.84142 1.52323 6.7699 1.59293L4.29831 4.09293C4.25234 4.13995 4.1976 4.17727 4.13728 4.20274C4.07695 4.22822 4.01222 4.24133 3.94685 4.24133C3.88147 4.24133 3.81675 4.22822 3.75642 4.20274C3.69609 4.17727 3.64136 4.13995 3.59539 4.09293L1.1238 1.59293C1.05133 1.52249 1.00182 1.43138 0.981852 1.33175C0.961887 1.23211 0.972421 1.12869 1.01205 1.03527C1.05168 0.941846 1.11852 0.862863 1.20366 0.808847C1.2888 0.75483 1.3882 0.728347 1.4886 0.73293Z" fill="#242C4F"/>
</svg>
