<svg width="40" height="41" viewBox="0 0 40 41" fill="none" xmlns="http://www.w3.org/2000/svg">
<g id="Estado=default">
<g id="Ellipse 1" filter="url(#filter0_d_1548_20325)">
<ellipse cx="20" cy="16.029" rx="16" ry="16.029" fill="#242C4F"/>
<path d="M35 16.029C35 24.3311 28.2826 31.0581 20 31.0581C11.7174 31.0581 5 24.3311 5 16.029C5 7.72702 11.7174 1 20 1C28.2826 1 35 7.72702 35 16.029Z" stroke="#242C4F" stroke-width="2"/>
</g>
<path id="user" d="M27.9049 21.459C27.9254 21.8542 27.8626 22.2494 27.7206 22.6187C27.5786 22.988 27.3606 23.3233 27.0808 23.6026C26.4827 24.144 25.6949 24.4258 24.8898 24.3863H15.0189C14.2139 24.4258 13.426 24.144 12.828 23.6026C12.5481 23.3233 12.3301 22.988 12.1881 22.6187C12.0461 22.2494 11.9833 21.8542 12.0038 21.459C12.0038 21.0591 12.0171 20.6687 12.0436 20.2878C12.074 19.8742 12.1267 19.4626 12.2015 19.0546C12.2742 18.6393 12.3742 18.2293 12.5009 17.8272C12.6242 17.4437 12.787 17.0741 12.9865 16.7244C13.1743 16.3865 13.4103 16.0779 13.687 15.8082C13.9665 15.5454 14.2945 15.3397 14.6527 15.2027C15.0543 15.0478 15.4817 14.9709 15.9121 14.9761C16.0844 15.0255 16.2455 15.108 16.3864 15.2191C16.6348 15.381 16.9152 15.562 17.2276 15.7619C17.6099 15.9933 18.0196 16.1756 18.4472 16.3048C19.4261 16.629 20.4833 16.629 21.4623 16.3048C21.8899 16.1757 22.2996 15.9933 22.6818 15.7619C22.9943 15.562 23.2747 15.381 23.5231 15.2191C23.6639 15.108 23.825 15.0255 23.9974 14.9761C24.4277 14.9709 24.8551 15.0478 25.2568 15.2027C25.6149 15.3397 25.9429 15.5454 26.2225 15.8082C26.4991 16.0779 26.7351 16.3865 26.9229 16.7244C27.1225 17.0741 27.2853 17.4437 27.4086 17.8272C27.5352 18.2293 27.6352 18.6393 27.708 19.0546C27.7827 19.4626 27.8354 19.8742 27.8658 20.2878C27.8919 20.6687 27.9049 21.0591 27.9049 21.459ZM24.2911 11.3571C24.2914 12.3626 23.9436 13.337 23.3071 14.1144C22.6707 14.8917 21.7848 15.4239 20.8005 15.6203C19.8163 15.8167 18.7945 15.6651 17.9093 15.1913C17.0241 14.7175 16.3302 13.9509 15.946 13.0221C15.5618 12.0933 15.5109 11.0597 15.8021 10.0975C16.0933 9.13535 16.7085 8.30409 17.5429 7.7454C18.3773 7.1867 19.3792 6.93514 20.378 7.03358C21.3768 7.13202 22.3106 7.57438 23.0203 8.28526C23.4304 8.68317 23.7547 9.16105 23.9732 9.68938C24.1918 10.2177 24.3 10.7853 24.2911 11.3571Z" fill="white"/>
</g>
<defs>
<filter id="filter0_d_1548_20325" x="0" y="0" width="40" height="40.0581" filterUnits="userSpaceOnUse" color-interpolation-filters="sRGB">
<feFlood flood-opacity="0" result="BackgroundImageFix"/>
<feColorMatrix in="SourceAlpha" type="matrix" values="0 0 0 0 0 0 0 0 0 0 0 0 0 0 0 0 0 0 127 0" result="hardAlpha"/>
<feOffset dy="4"/>
<feGaussianBlur stdDeviation="2"/>
<feComposite in2="hardAlpha" operator="out"/>
<feColorMatrix type="matrix" values="0 0 0 0 0 0 0 0 0 0 0 0 0 0 0 0 0 0 0.25 0"/>
<feBlend mode="normal" in2="BackgroundImageFix" result="effect1_dropShadow_1548_20325"/>
<feBlend mode="normal" in="SourceGraphic" in2="effect1_dropShadow_1548_20325" result="shape"/>
</filter>
</defs>
</svg>
