<svg width="7" height="4" viewBox="0 0 7 4" fill="none" xmlns="http://www.w3.org/2000/svg">
<path id="Icon awesome-sort-down" d="M1.48853 0.23293H6.41787C6.51717 0.231102 6.61471 0.259574 6.69779 0.314634C6.78086 0.369693 6.84561 0.448787 6.8836 0.541608C6.92158 0.63443 6.93105 0.736673 6.91075 0.835014C6.89046 0.933354 6.84135 1.02323 6.76982 1.09293L4.29823 3.59293C4.25226 3.63995 4.19753 3.67727 4.1372 3.70274C4.07687 3.72822 4.01215 3.74133 3.94677 3.74133C3.8814 3.74133 3.81667 3.72822 3.75634 3.70274C3.69602 3.67727 3.64128 3.63995 3.59531 3.59293L1.12372 1.09293C1.05126 1.02249 1.00174 0.931379 0.981775 0.831746C0.961811 0.732113 0.972345 0.62869 1.01197 0.535268C1.0516 0.441846 1.11844 0.362863 1.20359 0.308847C1.28873 0.25483 1.38813 0.228347 1.48853 0.23293Z" fill="white"/>
</svg>
