<?xml version="1.0" encoding="UTF-8"?>
<svg id="Capa_2" data-name="Capa 2" xmlns="http://www.w3.org/2000/svg" viewBox="0 0 72 63">
  <defs>
    <style>
      .cls-1 {
        fill: #e7bb61;
      }

      .cls-1, .cls-2 {
        stroke-width: 0px;
      }

      .cls-2 {
        fill: #fff;
      }

      .cls-3 {
        fill: none;
        stroke: #fff;
        stroke-linecap: round;
        stroke-width: 2px;
      }
    </style>
  </defs>
  <g id="Capa_1-2" data-name="Capa 1">
    <path class="cls-1" d="M30.08,3.35c.6-1.02,1.46-1.86,2.5-2.45,1.04-.59,2.22-.9,3.42-.9s2.38.31,3.42.9c1.04.59,1.9,1.43,2.5,2.45l29.18,49.72c.59,1.01.9,2.15.9,3.32,0,1.16-.32,2.31-.92,3.31-.6,1.01-1.46,1.84-2.5,2.42-1.04.58-2.21.89-3.4.89H6.82c-1.19,0-2.37-.31-3.4-.89-1.04-.58-1.9-1.42-2.5-2.42C.32,58.68,0,57.54,0,56.38c0-1.16.31-2.31.9-3.32L30.08,3.35Z"/>
    <path class="cls-3" d="M36,18v24"/>
    <path class="cls-2" d="M36,51c.83,0,1.5-.67,1.5-1.5s-.67-1.5-1.5-1.5-1.5.67-1.5,1.5.67,1.5,1.5,1.5Z"/>
  </g>
</svg>