<svg width="80" height="80" viewBox="0 0 80 80" fill="none" xmlns="http://www.w3.org/2000/svg">
<path d="M25.4773 30.587H15.363C14.7316 30.5734 14.1306 30.313 13.6889 29.8617C13.2471 29.4103 12.9999 28.8039 13 28.1724V20.1625C12.9999 19.5309 13.2471 18.9245 13.6889 18.4731C14.1306 18.0218 14.7316 17.7614 15.363 17.7478H25.4773C26.1178 17.7478 26.732 18.0022 27.1849 18.455C27.6378 18.9079 27.8922 19.522 27.8922 20.1625V28.1724C27.8922 28.8128 27.6378 29.4269 27.1849 29.8798C26.732 30.3326 26.1178 30.587 25.4773 30.587ZM15.363 19.9288C15.301 19.9288 15.2416 19.9534 15.1978 19.9972C15.1539 20.041 15.1293 20.1005 15.1293 20.1625V28.1724C15.1293 28.2343 15.1539 28.2938 15.1978 28.3376C15.2416 28.3814 15.301 28.406 15.363 28.406H25.4773C25.5393 28.406 25.5987 28.3814 25.6425 28.3376C25.6864 28.2938 25.711 28.2343 25.711 28.1724V20.1625C25.711 20.1005 25.6864 20.041 25.6425 19.9972C25.5987 19.9534 25.5393 19.9288 25.4773 19.9288H15.363Z" fill="white"/>
<path d="M43.0305 30.5871H32.9032C32.2628 30.5871 31.6485 30.3327 31.1956 29.8799C30.7427 29.4271 30.4883 28.8129 30.4883 28.1725V20.1626C30.4883 19.5222 30.7427 18.908 31.1956 18.4552C31.6485 18.0023 32.2628 17.7479 32.9032 17.7479H43.0175C43.3368 17.7445 43.6536 17.8044 43.9496 17.9242C44.2456 18.0441 44.5149 18.2214 44.7419 18.4459C44.9689 18.6705 45.1491 18.9378 45.2721 19.2325C45.3951 19.5272 45.4584 19.8433 45.4584 20.1626V28.1725C45.4584 28.4907 45.3955 28.8057 45.2733 29.0996C45.1512 29.3934 44.9721 29.6601 44.7465 29.8845C44.5209 30.1089 44.2531 30.2865 43.9586 30.4071C43.6641 30.5277 43.3487 30.5889 43.0305 30.5871ZM32.9162 19.9289C32.8542 19.9289 32.7948 19.9535 32.751 19.9974C32.7071 20.0412 32.6825 20.1006 32.6825 20.1626V28.1725C32.6825 28.2345 32.7071 28.2939 32.751 28.3377C32.7948 28.3816 32.8542 28.4062 32.9162 28.4062H43.0305C43.0925 28.4062 43.1519 28.3816 43.1957 28.3377C43.2396 28.2939 43.2642 28.2345 43.2642 28.1725V20.1626C43.2642 20.1006 43.2396 20.0412 43.1957 19.9974C43.1519 19.9535 43.0925 19.9289 43.0305 19.9289H32.9162Z" fill="white"/>
<path d="M60.5729 30.587H50.4586C49.8204 30.5836 49.2095 30.3277 48.7594 29.8752C48.3093 29.4227 48.0566 28.8105 48.0566 28.1724V20.1625C48.0566 19.5221 48.3111 18.9079 48.764 18.455C49.2169 18.0022 49.8311 17.7478 50.4716 17.7478H60.5858C61.2263 17.7478 61.8406 18.0022 62.2935 18.455C62.7464 18.9079 63.0008 19.5221 63.0008 20.1625V28.1724C63.0008 28.4905 62.9379 28.8056 62.8157 29.0994C62.6936 29.3932 62.5145 29.66 62.2889 29.8844C62.0633 30.1088 61.7955 30.2864 61.501 30.4069C61.2065 30.5275 60.8911 30.5887 60.5729 30.587ZM50.4586 19.9288C50.3966 19.9288 50.3372 19.9534 50.2934 19.9972C50.2495 20.041 50.2249 20.1005 50.2249 20.1625V28.1724C50.2249 28.2343 50.2495 28.2938 50.2934 28.3376C50.3372 28.3814 50.3966 28.406 50.4586 28.406H60.5729C60.6348 28.406 60.6943 28.3814 60.7381 28.3376C60.7819 28.2938 60.8066 28.2343 60.8066 28.1724V20.1625C60.8066 20.1005 60.7819 20.041 60.7381 19.9972C60.6943 19.9534 60.6348 19.9288 60.5729 19.9288H50.4586Z" fill="white"/>
<path d="M43.0305 45.5688H32.9032C32.2628 45.5688 31.6485 45.3144 31.1956 44.8615C30.7427 44.4087 30.4883 43.7945 30.4883 43.1541V35.1312C30.4883 34.4908 30.7427 33.8766 31.1956 33.4238C31.6485 32.971 32.2628 32.7166 32.9032 32.7166H43.0175C43.3368 32.7131 43.6536 32.7731 43.9496 32.8929C44.2456 33.0127 44.5149 33.19 44.7419 33.4146C44.9689 33.6391 45.1491 33.9065 45.2721 34.2011C45.3951 34.4958 45.4584 34.8119 45.4584 35.1312V43.1411C45.4601 43.4604 45.3985 43.7769 45.2771 44.0722C45.1557 44.3675 44.9769 44.6358 44.7511 44.8616C44.5253 45.0873 44.257 45.2661 43.9616 45.3875C43.6663 45.5089 43.3498 45.5705 43.0305 45.5688ZM32.9032 34.9495C32.8413 34.9495 32.7818 34.9741 32.738 35.0179C32.6942 35.0617 32.6695 35.1212 32.6695 35.1832V43.193C32.6695 43.255 32.6942 43.3145 32.738 43.3583C32.7818 43.4021 32.8413 43.4267 32.9032 43.4267H43.0175C43.0795 43.4267 43.1389 43.4021 43.1827 43.3583C43.2266 43.3145 43.2512 43.255 43.2512 43.193V35.1312C43.2512 35.0692 43.2266 35.0098 43.1827 34.966C43.1389 34.9222 43.0795 34.8975 43.0175 34.8975L32.9032 34.9495Z" fill="white"/>
<path d="M60.5729 45.5686H50.4586C49.8204 45.5652 49.2095 45.3093 48.7594 44.8568C48.3093 44.4043 48.0566 43.7921 48.0566 43.154V35.1311C48.0566 34.4907 48.3111 33.8765 48.764 33.4237C49.2169 32.9708 49.8311 32.7164 50.4716 32.7164H60.5858C61.2263 32.7164 61.8406 32.9708 62.2935 33.4237C62.7464 33.8765 63.0008 34.4907 63.0008 35.1311V43.141C63.0025 43.4603 62.9409 43.7767 62.8195 44.072C62.6981 44.3673 62.5193 44.6356 62.2935 44.8614C62.0677 45.0872 61.7994 45.2659 61.504 45.3873C61.2087 45.5087 60.8922 45.5703 60.5729 45.5686ZM50.4586 34.9493C50.3966 34.9493 50.3372 34.974 50.2934 35.0178C50.2495 35.0616 50.2249 35.121 50.2249 35.183V43.1929C50.2249 43.2549 50.2495 43.3143 50.2934 43.3581C50.3372 43.402 50.3966 43.4266 50.4586 43.4266H60.5729C60.6348 43.4266 60.6943 43.402 60.7381 43.3581C60.7819 43.3143 60.8066 43.2549 60.8066 43.1929V35.1311C60.8066 35.0691 60.7819 35.0097 60.7381 34.9658C60.6943 34.922 60.6348 34.8974 60.5729 34.8974L50.4586 34.9493Z" fill="white"/>
<path d="M25.4773 60.537H15.363C14.7316 60.5234 14.1306 60.263 13.6889 59.8116C13.2471 59.3603 12.9999 58.7538 13 58.1223V50.1124C13 49.472 13.2544 48.8578 13.7073 48.405C14.1602 47.9522 14.7745 47.6978 15.415 47.6978H25.5292C26.1697 47.6978 26.7839 47.9522 27.2368 48.405C27.6897 48.8578 27.9442 49.472 27.9442 50.1124V58.1223C27.9442 58.4438 27.8801 58.7621 27.7555 59.0585C27.6309 59.3549 27.4484 59.6234 27.2186 59.8484C26.9888 60.0733 26.7164 60.25 26.4174 60.3683C26.1184 60.4865 25.7987 60.5439 25.4773 60.537ZM15.363 49.8787C15.301 49.8787 15.2416 49.9033 15.1978 49.9472C15.1539 49.991 15.1293 50.0504 15.1293 50.1124V58.1223C15.1293 58.1843 15.1539 58.2437 15.1978 58.2875C15.2416 58.3314 15.301 58.356 15.363 58.356H25.4773C25.5393 58.356 25.5987 58.3314 25.6425 58.2875C25.6864 58.2437 25.711 58.1843 25.711 58.1223V50.1124C25.711 50.0504 25.6864 49.991 25.6425 49.9472C25.5987 49.9033 25.5393 49.8787 25.4773 49.8787H15.363Z" fill="white"/>
<path d="M60.5729 60.537H50.4586C49.8204 60.5335 49.2095 60.2776 48.7594 59.8252C48.3093 59.3727 48.0566 58.7605 48.0566 58.1223V50.1124C48.0566 49.472 48.3111 48.8578 48.764 48.405C49.2169 47.9522 49.8311 47.6978 50.4716 47.6978H60.5858C61.2263 47.6978 61.8406 47.9522 62.2935 48.405C62.7464 48.8578 63.0008 49.472 63.0008 50.1124V58.1223C63.0008 58.4405 62.9379 58.7556 62.8157 59.0494C62.6936 59.3432 62.5145 59.6099 62.2889 59.8343C62.0633 60.0587 61.7955 60.2363 61.501 60.3569C61.2065 60.4775 60.8911 60.5387 60.5729 60.537ZM50.4586 49.8787C50.3966 49.8787 50.3372 49.9033 50.2934 49.9472C50.2495 49.991 50.2249 50.0504 50.2249 50.1124V58.1223C50.2249 58.1843 50.2495 58.2437 50.2934 58.2875C50.3372 58.3314 50.3966 58.356 50.4586 58.356H60.5729C60.6348 58.356 60.6943 58.3314 60.7381 58.2875C60.7819 58.2437 60.8066 58.1843 60.8066 58.1223V50.1124C60.8066 50.0504 60.7819 49.991 60.7381 49.9472C60.6943 49.9033 60.6348 49.8787 60.5729 49.8787H50.4586Z" fill="white"/>
</svg>
