<svg width="80" height="80" viewBox="0 0 80 80" fill="none" xmlns="http://www.w3.org/2000/svg">
<path d="M62.5869 50.4127L62.4871 20.4885V20.3522L52.0328 8.95173L51.933 8.84949H19.8878C18.1673 8.85399 16.5185 9.55563 15.3019 10.801C14.0853 12.0464 13.3999 13.7343 13.3955 15.4955V62.4607C13.3999 64.222 14.0853 65.9098 15.3019 67.1552C16.5185 68.4006 18.1673 69.1022 19.8878 69.1067H56.1113C57.8289 69.0977 59.4735 68.3941 60.6865 67.1492C61.8995 65.9043 62.5826 64.219 62.5869 62.4607V50.4127ZM57.5929 19.7387H53.1815V14.8139L57.5929 19.7387ZM59.757 50.3104V62.4607C59.757 63.446 59.3746 64.3909 58.6941 65.0876C58.0135 65.7843 57.0904 66.1757 56.128 66.1757H19.8878C18.9253 66.1757 18.0023 65.7843 17.3217 65.0876C16.6411 64.3909 16.2588 63.446 16.2588 62.4607V15.4955C16.2588 14.5102 16.6411 13.5653 17.3217 12.8686C18.0023 12.1719 18.9253 11.7806 19.8878 11.7806H49.8521V21.4088C49.8521 21.8607 50.0275 22.2942 50.3397 22.6137C50.6519 22.9333 51.0753 23.1129 51.5168 23.1129C52.0994 23.1129 56.0947 23.1129 59.6571 23.1129L59.757 50.3104Z" fill="white"/>
<path d="M36.4769 48.9978C35.684 48.9686 34.9127 49.2756 34.3324 49.8512C33.7992 50.4229 33.5 51.1957 33.5 52.0011C33.5 52.8065 33.7992 53.5792 34.3324 54.151C34.939 54.6949 35.7067 54.9931 36.5 54.9931C37.2933 54.9931 38.061 54.6949 38.6676 54.151C39.2008 53.5792 39.5 52.8065 39.5 52.0011C39.5 51.1957 39.2008 50.4229 38.6676 49.8512C38.3747 49.5601 38.0299 49.3346 37.6536 49.1881C37.2773 49.0415 36.8771 48.9767 36.4769 48.9978Z" fill="white"/>
<path d="M37.1592 24.0241C34.7402 23.8638 32.3538 24.6835 30.4785 26.319C29.6574 27.1259 29.0109 28.1136 28.5841 29.2133C28.1572 30.3131 27.9602 31.4986 28.0067 32.6876H33.8189C33.7947 31.7028 34.13 30.7463 34.7541 30.0192C35.0694 29.6885 35.4465 29.432 35.8608 29.2665C36.2751 29.1011 36.7175 29.0302 37.1592 29.0586C39.2413 29.0586 40.2824 30.2445 40.2824 32.6165C40.2812 33.4198 40.0732 34.2073 39.6811 34.8935C39.0059 35.9396 38.1963 36.8797 37.2761 37.6865C36.2004 38.6525 35.3488 39.8701 34.7875 41.2444C34.28 42.7675 34.0477 44.3791 34.1028 45.9942H39.2135V44.6956C39.3632 43.3383 39.954 42.0796 40.8837 41.1377L42.5538 39.501C43.6142 38.4762 44.5111 37.2745 45.2094 35.9431C45.7097 34.8838 45.9672 33.7133 45.961 32.5275C46.0737 31.3729 45.9416 30.2061 45.5745 29.113C45.2073 28.02 44.6146 27.0287 43.8399 26.2122C41.9485 24.6181 39.5647 23.8373 37.1592 24.0241Z" fill="white"/>
</svg>
