<svg width="40" height="40" viewBox="0 0 40 40" fill="none" xmlns="http://www.w3.org/2000/svg">
<g id="Estado=default">
<g id="Ellipse 1" filter="url(#filter0_d_1548_5435)">
<circle cx="20" cy="16" r="16" fill="#14182C"/>
<circle cx="20" cy="16" r="15" stroke="#14182C" stroke-width="2"/>
</g>
<path id="user" d="M27.9049 21.4201C27.9254 21.8147 27.8626 22.2091 27.7206 22.5777C27.5786 22.9464 27.3606 23.281 27.0808 23.5599C26.4827 24.1002 25.6949 24.3815 24.8898 24.3421H15.0189C14.2139 24.3815 13.426 24.1002 12.828 23.5599C12.5481 23.281 12.3301 22.9464 12.1881 22.5777C12.0461 22.2091 11.9833 21.8147 12.0038 21.4201C12.0038 21.021 12.0171 20.6313 12.0436 20.2511C12.074 19.8382 12.1267 19.4273 12.2015 19.0201C12.2742 18.6056 12.3742 18.1963 12.5009 17.7949C12.6242 17.4121 12.787 17.0432 12.9865 16.6941C13.1743 16.3568 13.4103 16.0488 13.687 15.7796C13.9665 15.5172 14.2945 15.3119 14.6527 15.1752C15.0543 15.0206 15.4817 14.9438 15.9121 14.949C16.0844 14.9983 16.2455 15.0806 16.3864 15.1915C16.6348 15.3532 16.9152 15.5338 17.2276 15.7334C17.6099 15.9643 18.0196 16.1464 18.4472 16.2752C19.4261 16.5989 20.4833 16.5989 21.4623 16.2752C21.8899 16.1464 22.2996 15.9643 22.6818 15.7334C22.9943 15.5338 23.2747 15.3532 23.5231 15.1915C23.6639 15.0806 23.825 14.9983 23.9974 14.949C24.4277 14.9438 24.8551 15.0206 25.2568 15.1752C25.6149 15.3119 25.9429 15.5172 26.2225 15.7796C26.4991 16.0488 26.7351 16.3568 26.9229 16.6941C27.1225 17.0432 27.2853 17.4121 27.4086 17.7949C27.5352 18.1963 27.6352 18.6056 27.708 19.0201C27.7827 19.4273 27.8354 19.8382 27.8658 20.2511C27.8919 20.6313 27.9049 21.021 27.9049 21.4201ZM24.2911 11.3366C24.2914 12.3402 23.9436 13.3128 23.3071 14.0888C22.6707 14.8648 21.7848 15.396 20.8005 15.592C19.8163 15.788 18.7945 15.6367 17.9093 15.1638C17.0241 14.6909 16.3302 13.9256 15.946 12.9985C15.5618 12.0714 15.5109 11.0397 15.8021 10.0792C16.0933 9.11881 16.7085 8.28906 17.5429 7.73137C18.3773 7.17369 19.3792 6.92258 20.378 7.02085C21.3768 7.11911 22.3106 7.56067 23.0203 8.27026C23.4304 8.66745 23.7547 9.14446 23.9732 9.67184C24.1918 10.1992 24.3 10.7658 24.2911 11.3366Z" fill="white"/>
</g>
<defs>
<filter id="filter0_d_1548_5435" x="0" y="0" width="40" height="40" filterUnits="userSpaceOnUse" color-interpolation-filters="sRGB">
<feFlood flood-opacity="0" result="BackgroundImageFix"/>
<feColorMatrix in="SourceAlpha" type="matrix" values="0 0 0 0 0 0 0 0 0 0 0 0 0 0 0 0 0 0 127 0" result="hardAlpha"/>
<feOffset dy="4"/>
<feGaussianBlur stdDeviation="2"/>
<feComposite in2="hardAlpha" operator="out"/>
<feColorMatrix type="matrix" values="0 0 0 0 0 0 0 0 0 0 0 0 0 0 0 0 0 0 0.25 0"/>
<feBlend mode="normal" in2="BackgroundImageFix" result="effect1_dropShadow_1548_5435"/>
<feBlend mode="normal" in="SourceGraphic" in2="effect1_dropShadow_1548_5435" result="shape"/>
</filter>
</defs>
</svg>
