<svg width="24" height="22" viewBox="0 0 24 22" fill="none" xmlns="http://www.w3.org/2000/svg">
<path d="M10.026 1.61566C10.2249 1.27674 10.5123 0.995046 10.8591 0.79912C11.2059 0.603193 11.5996 0.5 12.0006 0.5C12.4015 0.5 12.7953 0.603193 13.142 0.79912C13.4888 0.995046 13.7762 1.27674 13.9751 1.61566L23.7005 18.1876C23.8981 18.5243 24.0013 18.9056 24 19.2933C23.9986 19.6811 23.8927 20.0617 23.6929 20.397C23.493 20.7324 23.2062 21.0108 22.8611 21.2044C22.5161 21.3979 22.1248 21.4999 21.7266 21.5H2.27343C1.87518 21.4999 1.48395 21.3979 1.13887 21.2044C0.793801 21.0108 0.506986 20.7324 0.307123 20.397C0.10726 20.0617 0.00135859 19.6811 1.29851e-05 19.2933C-0.00133262 18.9056 0.101925 18.5243 0.299456 18.1876L10.026 1.61566Z" fill="#C62828"/>
<path d="M12 6.5V14.5" stroke="white" stroke-linecap="round"/>
<path d="M12 17.5C12.2761 17.5 12.5 17.2761 12.5 17C12.5 16.7239 12.2761 16.5 12 16.5C11.7239 16.5 11.5 16.7239 11.5 17C11.5 17.2761 11.7239 17.5 12 17.5Z" fill="white"/>
</svg>
